<svg width="14" height="14" xmlns="http://www.w3.org/2000/svg">

 <g>
  <title>background</title>
  <rect fill="none" id="canvas_background" height="16" width="16" y="-1" x="-1"/>
 </g>
 <g>
  <title>Layer 1</title>
  <path id="svg_1" fill="#5E72E4" d="m4.75781,10.7539l-4.5664,-4.53906c-0.12761,-0.1276 -0.19141,-0.29166 -0.19141,-0.49218c0,-0.20052 0.0638,-0.36459 0.19141,-0.49219l1.01171,-0.98438c0.12761,-0.14583 0.28256,-0.21875 0.46485,-0.21875c0.20052,0 0.3737,0.07292 0.51953,0.21875l3.0625,3.0625l6.5625,-6.5625c0.1458,-0.14583 0.3099,-0.21875 0.4922,-0.21875c0.2005,0 0.3646,0.07292 0.4922,0.21875l1.0117,0.98438c0.1276,0.1276 0.1914,0.29167 0.1914,0.49219c0,0.20052 -0.0638,0.36458 -0.1914,0.49218l-8.06641,8.03906c-0.12761,0.1458 -0.29167,0.2188 -0.49219,0.2188c-0.20052,0 -0.36458,-0.073 -0.49219,-0.2188zm0,29l-4.5664,-4.5391c-0.12761,-0.1276 -0.19141,-0.2916 -0.19141,-0.4921c0,-0.2006 0.0638,-0.3646 0.19141,-0.4922l1.01171,-0.9844c0.12761,-0.1458 0.28256,-0.2188 0.46485,-0.2188c0.20052,0 0.3737,0.073 0.51953,0.2188l3.0625,3.0625l6.5625,-6.5625c0.1458,-0.1458 0.3099,-0.2188 0.4922,-0.2188c0.2005,0 0.3646,0.073 0.4922,0.2188l1.0117,0.9844c0.1276,0.1276 0.1914,0.2916 0.1914,0.4922c0,0.2005 -0.0638,0.3645 -0.1914,0.4921l-8.06641,8.0391c-0.12761,0.1458 -0.29167,0.2188 -0.49219,0.2188c-0.20052,0 -0.36458,-0.073 -0.49219,-0.2188zm0,29l-4.5664,-4.5391c-0.12761,-0.1276 -0.19141,-0.2916 -0.19141,-0.4921c0,-0.2006 0.0638,-0.3646 0.19141,-0.4922l1.01171,-0.9844c0.12761,-0.1458 0.28256,-0.2188 0.46485,-0.2188c0.20052,0 0.3737,0.073 0.51953,0.2188l3.0625,3.0625l6.5625,-6.5625c0.1458,-0.1458 0.3099,-0.2188 0.4922,-0.2188c0.2005,0 0.3646,0.073 0.4922,0.2188l1.0117,0.9844c0.1276,0.1276 0.1914,0.2916 0.1914,0.4922c0,0.2005 -0.0638,0.3645 -0.1914,0.4921l-8.06641,8.0391c-0.12761,0.1458 -0.29167,0.2188 -0.49219,0.2188c-0.20052,0 -0.36458,-0.073 -0.49219,-0.2188zm0,29l-4.5664,-4.5391c-0.12761,-0.1276 -0.19141,-0.2916 -0.19141,-0.4921c0,-0.2006 0.0638,-0.3646 0.19141,-0.4922l1.01171,-0.9844c0.12761,-0.1458 0.28256,-0.2188 0.46485,-0.2188c0.20052,0 0.3737,0.073 0.51953,0.2188l3.0625,3.0625l6.5625,-6.5625c0.1458,-0.1458 0.3099,-0.2188 0.4922,-0.2188c0.2005,0 0.3646,0.073 0.4922,0.2188l1.0117,0.9844c0.1276,0.1276 0.1914,0.2916 0.1914,0.4922c0,0.2005 -0.0638,0.3645 -0.1914,0.4921l-8.06641,8.0391c-0.12761,0.1458 -0.29167,0.2188 -0.49219,0.2188c-0.20052,0 -0.36458,-0.073 -0.49219,-0.2188zm0,29.0001l-4.5664,-4.539c-0.12761,-0.128 -0.19141,-0.292 -0.19141,-0.492c0,-0.201 0.0638,-0.365 0.19141,-0.493l1.01171,-0.984c0.12761,-0.146 0.28256,-0.219 0.46485,-0.219c0.20052,0 0.3737,0.073 0.51953,0.219l3.0625,3.063l6.5625,-6.563c0.1458,-0.146 0.3099,-0.219 0.4922,-0.219c0.2005,0 0.3646,0.073 0.4922,0.219l1.0117,0.984c0.1276,0.128 0.1914,0.292 0.1914,0.493c0,0.2 -0.0638,0.364 -0.1914,0.492l-8.06641,8.039c-0.12761,0.146 -0.29167,0.219 -0.49219,0.219c-0.20052,0 -0.36458,-0.073 -0.49219,-0.219z"/>
 </g>
</svg>