<svg width="13" height="35" viewBox="0 0 13 35" fill="none" xmlns="http://www.w3.org/2000/svg">
<path d="M11.5781 1.08594C11.875 1.14844 12.0234 1.32812 12.0234 1.625C12.0234 4.625 10.9609 7.1875 8.83594 9.3125C6.71094 11.4375 4.14844 12.5 1.14844 12.5C0.851562 12.5 0.671875 12.3516 0.609375 12.0547L0.046875 9.61719C-0.03125 9.32031 0.078125 9.10938 0.375 8.98438L3 7.85938C3.25 7.75 3.46875 7.80469 3.65625 8.02344L4.80469 9.42969C5.72656 9.00781 6.53906 8.4375 7.24219 7.71875C7.96094 7 8.53125 6.1875 8.95312 5.28125L7.54688 4.10938C7.32812 3.9375 7.27344 3.71875 7.38281 3.45312L8.50781 0.828125C8.63281 0.546875 8.84375 0.445312 9.14062 0.523438L11.5781 1.08594ZM6 22.6875C7.65625 22.6875 9.03906 23.1719 10.1484 24.1406C11.2578 25.1094 11.8125 26.375 11.8125 27.9375C11.8125 28.9219 11.5234 29.7422 10.9453 30.3984C10.3672 31.0547 9.48438 31.3828 8.29688 31.3828C8.0625 31.3828 7.88281 31.3828 7.75781 31.3828C7.63281 31.3672 7.47656 31.3359 7.28906 31.2891C7.11719 31.2422 6.97656 31.1641 6.86719 31.0547C6.75781 30.9297 6.67969 30.7734 6.63281 30.5859C6.42969 30.8516 6.16406 31.0703 5.83594 31.2422C5.50781 31.4141 5.1875 31.5 4.875 31.5C4.1875 31.5 3.64062 31.2812 3.23438 30.8438C2.82812 30.3906 2.625 29.7812 2.625 29.0156C2.625 27.9844 2.9375 27.1328 3.5625 26.4609C4.20312 25.7891 4.96875 25.4531 5.85938 25.4531C6.51562 25.4531 6.98438 25.625 7.26562 25.9688C7.28125 25.7812 7.38281 25.6875 7.57031 25.6875H8.625C8.8125 25.6875 8.96094 25.7578 9.07031 25.8984C9.17969 26.0234 9.21875 26.1797 9.1875 26.3672L8.625 29.2031C8.57812 29.4062 8.57031 29.5703 8.60156 29.6953C8.64844 29.8203 8.76562 29.8906 8.95312 29.9062C9.35938 29.8594 9.6875 29.6406 9.9375 29.25C10.1875 28.8594 10.3125 28.4219 10.3125 27.9375C10.3125 26.7812 9.89844 25.8672 9.07031 25.1953C8.24219 24.5234 7.21875 24.1875 6 24.1875C4.8125 24.1875 3.79688 24.6094 2.95312 25.4531C2.10938 26.2969 1.6875 27.3125 1.6875 28.5C1.6875 29.6875 2.10938 30.7031 2.95312 31.5469C3.79688 32.3906 4.8125 32.8125 6 32.8125C6.84375 32.8125 7.61719 32.5859 8.32031 32.1328C8.44531 32.0547 8.57812 32.0312 8.71875 32.0625C8.85938 32.0781 8.97656 32.1406 9.07031 32.25L9.30469 32.5312C9.41406 32.6719 9.45312 32.8281 9.42188 33C9.39062 33.1562 9.30469 33.2812 9.16406 33.375C8.21094 34 7.15625 34.3125 6 34.3125C4.39062 34.3125 3.01562 33.75 1.875 32.625C0.75 31.4844 0.1875 30.1094 0.1875 28.5C0.1875 26.8906 0.75 25.5234 1.875 24.3984C3.01562 23.2578 4.39062 22.6875 6 22.6875ZM5.48438 29.8125C5.8125 29.8125 6.11719 29.6562 6.39844 29.3438C6.69531 29.0156 6.84375 28.6094 6.84375 28.125C6.84375 27.8281 6.77344 27.5938 6.63281 27.4219C6.49219 27.25 6.28906 27.1641 6.02344 27.1641C5.66406 27.1641 5.34375 27.3281 5.0625 27.6562C4.78125 27.9688 4.64062 28.375 4.64062 28.875C4.64062 29.1719 4.71875 29.4062 4.875 29.5781C5.03125 29.7344 5.23438 29.8125 5.48438 29.8125Z" fill="#5E72E4"/>
</svg>
