<svg width="33" height="33" viewBox="0 0 33 33" fill="none" xmlns="http://www.w3.org/2000/svg">
<path d="M26.1682 16.2212C25.9012 16.2212 25.6848 16.4376 25.6848 16.7046V17.8126C25.6848 18.0796 25.9012 18.296 26.1682 18.296C26.4352 18.296 26.6516 18.0796 26.6516 17.8126V16.7046C26.6516 16.4376 26.4352 16.2212 26.1682 16.2212Z" fill="white"/>
<path d="M12.0065 1.51945L11.6522 0.344154C11.5752 0.0885338 11.3054 -0.0562921 11.0498 0.0208582C10.7942 0.0978795 10.6495 0.367615 10.7265 0.623236C10.7265 0.623236 11.0804 1.79699 11.0809 1.79854C11.1563 2.04887 11.4331 2.19731 11.6832 2.12183C11.9389 2.04475 12.0836 1.77508 12.0065 1.51945Z" fill="white"/>
<path d="M8.21366 4.14344L7.13201 3.56291C6.89676 3.43671 6.60375 3.52501 6.47749 3.76026C6.35122 3.99545 6.43959 4.28852 6.67484 4.41478L7.7565 4.99531C7.98898 5.12009 8.2863 5.03044 8.41102 4.79796C8.53728 4.56277 8.44892 4.2697 8.21366 4.14344Z" fill="white"/>
<path d="M7.98959 9.00408C7.91257 8.74846 7.64289 8.60383 7.38721 8.68085L6.21191 9.03521C5.95628 9.1123 5.81159 9.38197 5.88861 9.63752C5.96441 9.88889 6.2402 10.0363 6.49099 9.96082L7.66629 9.60646C7.92191 9.52937 8.06661 9.2597 7.98959 9.00408Z" fill="white"/>
<path d="M16.9271 0.609618C16.6919 0.483484 16.3989 0.571784 16.2726 0.807038L15.6921 1.88862C15.5658 2.12388 15.6542 2.41688 15.8894 2.54314C16.1215 2.6676 16.4192 2.57821 16.544 2.34579L17.1245 1.26414C17.2508 1.02895 17.1624 0.735882 16.9271 0.609618Z" fill="white"/>
<path d="M20.6668 5.18194C20.5898 4.92632 20.3201 4.78169 20.0645 4.85871L18.8892 5.21307C18.6335 5.29016 18.4888 5.55983 18.5659 5.81538C18.6413 6.06553 18.9184 6.2139 19.1682 6.13868L20.3435 5.78432C20.5992 5.70723 20.7439 5.43756 20.6668 5.18194Z" fill="white"/>
<path d="M32.2265 17.3946C31.9458 16.3149 30.7737 15.675 29.7127 16.0221L29.2762 16.1649C28.5635 14.2139 27.2811 12.5091 25.6148 11.173C25.9216 10.0335 25.945 8.72847 25.9049 7.797C25.8721 7.03523 25.1747 6.43827 24.4186 6.51432C22.5118 6.70665 21.2694 8.06332 20.7945 8.68394C19.9089 8.42264 18.9854 8.23934 18.0361 8.14247C18.0735 7.89987 18.093 7.65494 18.093 7.40964C18.093 4.75456 15.933 2.59448 13.2779 2.59448C10.6228 2.59448 8.46274 4.75456 8.46274 7.40964C8.46274 8.30798 8.7054 9.1645 9.16798 9.91757C8.13938 10.4904 7.19591 11.1865 6.37059 11.9947C6.17988 12.1815 6.17665 12.4875 6.36344 12.6783C6.55022 12.8691 6.85625 12.8722 7.04703 12.6854C9.75148 10.0368 13.6337 8.82496 17.3697 9.0577C20.0172 9.22264 22.6473 10.1182 24.7648 11.7324C24.7654 11.7329 24.7661 11.7331 24.7667 11.7336C26.5385 13.081 27.8682 14.8625 28.511 16.9187C28.5929 17.1808 28.893 17.3238 29.1481 17.2241C29.1481 17.2241 30.0128 16.9412 30.0132 16.941C30.5536 16.7642 31.148 17.0885 31.2908 17.6378C31.5593 18.6707 31.8881 20.5608 31.0736 21.614C30.6386 22.1765 29.8929 22.4635 28.8571 22.4671C28.6491 22.4585 28.4549 22.5855 28.3825 22.7862C27.618 24.906 26.0459 26.8131 23.9559 28.156C20.4249 30.4248 15.8741 30.8843 11.9129 29.5615C11.8958 29.5558 11.8789 29.55 11.8619 29.5442C7.84212 28.1814 4.8439 25.0861 4.142 21.3459C3.9665 20.4065 3.93775 19.4402 4.06028 18.4923C4.26169 16.9336 4.86439 15.4307 5.83357 14.091C5.99006 13.8747 5.94153 13.5725 5.72523 13.416C5.50892 13.2595 5.20677 13.3081 5.05021 13.5244C4.10133 14.8359 3.47195 16.2922 3.18919 17.8096C2.84869 17.6976 2.38675 17.5051 2.00609 17.2003C1.38445 16.7025 0.431121 17.1718 0.442981 17.9664C0.477334 20.2685 2.1145 21.3539 3.25184 21.8308C3.69122 23.8477 4.7418 25.72 6.32535 27.2829C6.32619 28.5001 6.58019 31.0373 8.5047 32.6479C8.77592 32.8749 9.12383 32.9999 9.48445 32.9999C9.48445 32.9999 11.8992 32.9999 11.901 32.9999C12.878 32.9999 13.6183 32.0604 13.3989 31.1104C13.3867 31.0575 13.3755 31.0043 13.3644 30.9513C14.3666 31.154 15.4028 31.259 16.4577 31.259C17.0891 31.259 17.7138 31.2217 18.3288 31.1483C18.6611 31.7317 19.077 32.2356 19.5697 32.6479C19.841 32.8749 20.1889 32.9999 20.5495 32.9999C20.5495 32.9999 22.9645 32.9999 22.966 32.9999C23.9431 32.9999 24.6832 32.0603 24.4639 31.1104C24.4319 30.9717 24.1034 29.7226 23.9979 29.264C24.16 29.169 24.3204 29.0709 24.4785 28.9693C26.6444 27.5777 28.301 25.6184 29.174 23.4252C30.3659 23.3614 31.2611 22.9519 31.8384 22.2054C32.852 20.8946 32.6089 18.8658 32.2265 17.3946ZM14.9307 8.1368C14.8999 8.13976 14.0584 8.2327 13.9366 8.26751C13.2869 8.37392 12.6471 8.52068 12.0236 8.70849C11.6708 8.36966 11.4725 7.90773 11.4725 7.4097C11.4725 6.41429 12.2824 5.60444 13.2778 5.60444C14.2732 5.60444 15.083 6.41429 15.083 7.4097C15.0831 7.66152 15.0308 7.90902 14.9307 8.1368ZM17.0682 8.07415C17.0642 8.07402 17.0603 8.07395 17.0563 8.07383C16.6939 8.05952 16.3312 8.059 15.9687 8.07041C16.0214 7.85526 16.05 7.63374 16.05 7.4097C16.05 5.8812 14.8064 4.63764 13.2779 4.63764C11.7494 4.63764 10.5058 5.8812 10.5058 7.4097C10.5058 8.00157 10.6989 8.57437 11.0416 9.04455C10.698 9.175 10.3599 9.31699 10.0293 9.47246C9.63585 8.85674 9.42953 8.15085 9.42953 7.4097C9.42947 5.28772 11.1558 3.56134 13.2778 3.56134C15.3998 3.56134 17.1262 5.28772 17.1262 7.4097C17.1262 7.63226 17.1067 7.85456 17.0682 8.07415ZM24.7703 10.5451C23.8521 9.92002 22.8509 9.40478 21.7804 9.00659C22.2681 8.4512 23.2099 7.60802 24.5155 7.47635C24.7368 7.45392 24.9295 7.62098 24.9389 7.83857C24.966 8.46692 24.9711 9.55418 24.7703 10.5451ZM1.41016 17.9616C1.96755 18.4052 2.63 18.6549 3.05668 18.7814C3.04405 18.926 3.03438 19.071 3.02793 19.2163C3.01008 19.6216 3.02071 20.0261 3.04772 20.4307C3.05371 20.51 3.06067 20.5891 3.06847 20.6681C1.74764 19.9124 1.42582 18.8154 1.41016 17.9616ZM11.901 32.0332H9.48451C9.35038 32.0332 9.22283 31.9883 9.12532 31.9066C7.88234 30.8663 7.46758 29.3255 7.34184 28.1843C7.34615 28.1877 7.35067 28.191 7.35505 28.1945C8.80453 29.3479 10.5 30.1975 12.3364 30.7057C12.369 30.9136 12.4093 31.1219 12.457 31.328C12.5388 31.6822 12.2658 32.0332 11.901 32.0332ZM22.9661 32.0333H20.5495C20.4154 32.0333 20.2879 31.9883 20.1903 31.9067C19.878 31.6453 19.6021 31.3379 19.3658 30.9885C20.6811 30.7394 21.942 30.3202 23.1168 29.7398C23.2084 30.1209 23.4932 31.2034 23.5219 31.328C23.6038 31.6824 23.3311 32.0333 22.9661 32.0333Z" fill="white"/>
</svg>
