<svg width="64" height="19" viewBox="0 0 64 19" fill="none" xmlns="http://www.w3.org/2000/svg">
<path d="M1.71187 5.1953C3.14651 5.1953 4.30955 4.03229 4.30955 2.59765C4.30955 1.16301 3.14651 0 1.71187 0C0.277235 0 -0.885742 1.16301 -0.885742 2.59765C-0.885742 4.03229 0.277235 5.1953 1.71187 5.1953Z" fill="#5E72E4"/>
<path d="M18.7348 5.1953C20.1695 5.1953 21.3324 4.03229 21.3324 2.59765C21.3324 1.16301 20.1695 0 18.7348 0C17.3002 0 16.1372 1.16301 16.1372 2.59765C16.1372 4.03229 17.3002 5.1953 18.7348 5.1953Z" fill="#5E72E4"/>
<path d="M35.7576 5.1953C37.1922 5.1953 38.3552 4.03229 38.3552 2.59765C38.3552 1.16301 37.1922 0 35.7576 0C34.323 0 33.1599 1.16301 33.1599 2.59765C33.1599 4.03229 34.323 5.1953 35.7576 5.1953Z" fill="#5E72E4"/>
<path d="M52.7805 5.1953C54.2151 5.1953 55.3782 4.03229 55.3782 2.59765C55.3782 1.16301 54.2151 0 52.7805 0C51.3458 0 50.1829 1.16301 50.1829 2.59765C50.1829 4.03229 51.3458 5.1953 52.7805 5.1953Z" fill="#5E72E4"/>
<path d="M10.3338 18.6809C11.7684 18.6809 12.9314 17.5178 12.9314 16.0832C12.9314 14.6486 11.7684 13.4856 10.3338 13.4856C8.89913 13.4856 7.73608 14.6486 7.73608 16.0832C7.73608 17.5178 8.89913 18.6809 10.3338 18.6809Z" fill="#5E72E4"/>
<path d="M27.3566 18.6809C28.7913 18.6809 29.9543 17.5178 29.9543 16.0832C29.9543 14.6486 28.7913 13.4856 27.3566 13.4856C25.922 13.4856 24.759 14.6486 24.759 16.0832C24.759 17.5178 25.922 18.6809 27.3566 18.6809Z" fill="#5E72E4"/>
<path d="M44.3794 18.6809C45.8141 18.6809 46.977 17.5178 46.977 16.0832C46.977 14.6486 45.8141 13.4856 44.3794 13.4856C42.9448 13.4856 41.7817 14.6486 41.7817 16.0832C41.7817 17.5178 42.9448 18.6809 44.3794 18.6809Z" fill="#5E72E4"/>
<path d="M61.4023 18.6809C62.8369 18.6809 64 17.5178 64 16.0832C64 14.6486 62.8369 13.4856 61.4023 13.4856C59.9677 13.4856 58.8047 14.6486 58.8047 16.0832C58.8047 17.5178 59.9677 18.6809 61.4023 18.6809Z" fill="#5E72E4"/>
</svg>
