<svg width="222" height="34" viewBox="0 0 222 34" fill="none" xmlns="http://www.w3.org/2000/svg">
<path d="M16.3 9.40002C18.8958 9.40002 21 7.29575 21 4.70001C21 2.10427 18.8958 0 16.3 0C13.7043 0 11.6 2.10427 11.6 4.70001C11.6 7.29575 13.7043 9.40002 16.3 9.40002Z" fill="#5E72E4"/>
<path d="M47.1 9.40002C49.6957 9.40002 51.8 7.29575 51.8 4.70001C51.8 2.10427 49.6957 0 47.1 0C44.5042 0 42.4 2.10427 42.4 4.70001C42.4 7.29575 44.5042 9.40002 47.1 9.40002Z" fill="#5E72E4"/>
<path d="M77.9 9.40002C80.4958 9.40002 82.6 7.29575 82.6 4.70001C82.6 2.10427 80.4958 0 77.9 0C75.3043 0 73.2 2.10427 73.2 4.70001C73.2 7.29575 75.3043 9.40002 77.9 9.40002Z" fill="#5E72E4"/>
<path d="M108.7 9.40002C111.296 9.40002 113.4 7.29575 113.4 4.70001C113.4 2.10427 111.296 0 108.7 0C106.104 0 104 2.10427 104 4.70001C104 7.29575 106.104 9.40002 108.7 9.40002Z" fill="#5E72E4"/>
<path d="M139.5 9.40002C142.096 9.40002 144.2 7.29575 144.2 4.70001C144.2 2.10427 142.096 0 139.5 0C136.904 0 134.8 2.10427 134.8 4.70001C134.8 7.29575 136.904 9.40002 139.5 9.40002Z" fill="#5E72E4"/>
<path d="M170.3 9.40002C172.896 9.40002 175 7.29575 175 4.70001C175 2.10427 172.896 0 170.3 0C167.704 0 165.6 2.10427 165.6 4.70001C165.6 7.29575 167.704 9.40002 170.3 9.40002Z" fill="#5E72E4"/>
<path d="M201.1 9.40002C203.696 9.40002 205.8 7.29575 205.8 4.70001C205.8 2.10427 203.696 0 201.1 0C198.504 0 196.4 2.10427 196.4 4.70001C196.4 7.29575 198.504 9.40002 201.1 9.40002Z" fill="#5E72E4"/>
<path d="M1.09998 33.8C3.69571 33.8 5.80005 31.6957 5.80005 29.1C5.80005 26.5042 3.69571 24.4 1.09998 24.4C-1.49576 24.4 -3.59998 26.5042 -3.59998 29.1C-3.59998 31.6957 -1.49576 33.8 1.09998 33.8Z" fill="#5E72E4"/>
<path d="M31.9 33.8C34.4958 33.8 36.6 31.6957 36.6 29.1C36.6 26.5042 34.4958 24.4 31.9 24.4C29.3043 24.4 27.2 26.5042 27.2 29.1C27.2 31.6957 29.3043 33.8 31.9 33.8Z" fill="#5E72E4"/>
<path d="M62.7 33.8C65.2957 33.8 67.4 31.6957 67.4 29.1C67.4 26.5042 65.2957 24.4 62.7 24.4C60.1042 24.4 58 26.5042 58 29.1C58 31.6957 60.1042 33.8 62.7 33.8Z" fill="#5E72E4"/>
<path d="M93.5 33.8C96.0957 33.8 98.2 31.6957 98.2 29.1C98.2 26.5042 96.0957 24.4 93.5 24.4C90.9043 24.4 88.8 26.5042 88.8 29.1C88.8 31.6957 90.9043 33.8 93.5 33.8Z" fill="#5E72E4"/>
<path d="M124.3 33.8C126.896 33.8 129 31.6957 129 29.1C129 26.5042 126.896 24.4 124.3 24.4C121.704 24.4 119.6 26.5042 119.6 29.1C119.6 31.6957 121.704 33.8 124.3 33.8Z" fill="#5E72E4"/>
<path d="M155.1 33.8C157.696 33.8 159.8 31.6957 159.8 29.1C159.8 26.5042 157.696 24.4 155.1 24.4C152.504 24.4 150.4 26.5042 150.4 29.1C150.4 31.6957 152.504 33.8 155.1 33.8Z" fill="#5E72E4"/>
<path d="M185.9 33.8C188.496 33.8 190.6 31.6957 190.6 29.1C190.6 26.5042 188.496 24.4 185.9 24.4C183.304 24.4 181.2 26.5042 181.2 29.1C181.2 31.6957 183.304 33.8 185.9 33.8Z" fill="#5E72E4"/>
<path d="M216.7 33.8C219.296 33.8 221.4 31.6957 221.4 29.1C221.4 26.5042 219.296 24.4 216.7 24.4C214.104 24.4 212 26.5042 212 29.1C212 31.6957 214.104 33.8 216.7 33.8Z" fill="#5E72E4"/>
</svg>
