<svg width="168" height="34" viewBox="0 0 168 34" fill="none" xmlns="http://www.w3.org/2000/svg">
<path d="M23.9 9.40002C26.4958 9.40002 28.6 7.29575 28.6 4.70001C28.6 2.10427 26.4958 0 23.9 0C21.3043 0 19.2 2.10427 19.2 4.70001C19.2 7.29575 21.3043 9.40002 23.9 9.40002Z" fill="#5E72E4"/>
<path d="M54.7 9.40002C57.2957 9.40002 59.4 7.29575 59.4 4.70001C59.4 2.10427 57.2957 0 54.7 0C52.1042 0 50 2.10427 50 4.70001C50 7.29575 52.1042 9.40002 54.7 9.40002Z" fill="#5E72E4"/>
<path d="M85.5 9.40002C88.0957 9.40002 90.2 7.29575 90.2 4.70001C90.2 2.10427 88.0957 0 85.5 0C82.9043 0 80.8 2.10427 80.8 4.70001C80.8 7.29575 82.9043 9.40002 85.5 9.40002Z" fill="#5E72E4"/>
<path d="M116.3 9.40002C118.896 9.40002 121 7.29575 121 4.70001C121 2.10427 118.896 0 116.3 0C113.704 0 111.6 2.10427 111.6 4.70001C111.6 7.29575 113.704 9.40002 116.3 9.40002Z" fill="#5E72E4"/>
<path d="M147.1 9.40002C149.696 9.40002 151.8 7.29575 151.8 4.70001C151.8 2.10427 149.696 0 147.1 0C144.504 0 142.4 2.10427 142.4 4.70001C142.4 7.29575 144.504 9.40002 147.1 9.40002Z" fill="#5E72E4"/>
<path d="M8.69995 33.7999C11.2957 33.7999 13.4 31.6956 13.4 29.0999C13.4 26.5041 11.2957 24.3999 8.69995 24.3999C6.10421 24.3999 4 26.5041 4 29.0999C4 31.6956 6.10421 33.7999 8.69995 33.7999Z" fill="#5E72E4"/>
<path d="M39.5 33.7999C42.0957 33.7999 44.2 31.6956 44.2 29.0999C44.2 26.5041 42.0957 24.3999 39.5 24.3999C36.9043 24.3999 34.8 26.5041 34.8 29.0999C34.8 31.6956 36.9043 33.7999 39.5 33.7999Z" fill="#5E72E4"/>
<path d="M70.3 33.7999C72.8958 33.7999 75 31.6956 75 29.0999C75 26.5041 72.8958 24.3999 70.3 24.3999C67.7043 24.3999 65.6 26.5041 65.6 29.0999C65.6 31.6956 67.7043 33.7999 70.3 33.7999Z" fill="#5E72E4"/>
<path d="M101.1 33.7999C103.696 33.7999 105.8 31.6956 105.8 29.0999C105.8 26.5041 103.696 24.3999 101.1 24.3999C98.5042 24.3999 96.4 26.5041 96.4 29.0999C96.4 31.6956 98.5042 33.7999 101.1 33.7999Z" fill="#5E72E4"/>
<path d="M131.9 33.7999C134.496 33.7999 136.6 31.6956 136.6 29.0999C136.6 26.5041 134.496 24.3999 131.9 24.3999C129.304 24.3999 127.2 26.5041 127.2 29.0999C127.2 31.6956 129.304 33.7999 131.9 33.7999Z" fill="#5E72E4"/>
<path d="M162.7 33.7999C165.296 33.7999 167.4 31.6956 167.4 29.0999C167.4 26.5041 165.296 24.3999 162.7 24.3999C160.104 24.3999 158 26.5041 158 29.0999C158 31.6956 160.104 33.7999 162.7 33.7999Z" fill="#5E72E4"/>
</svg>
