<svg width="38" height="34" viewBox="0 0 38 34" fill="none" xmlns="http://www.w3.org/2000/svg">
<path d="M4.70001 9.40002C7.29575 9.40002 9.40002 7.29575 9.40002 4.70001C9.40002 2.10427 7.29575 0 4.70001 0C2.10427 0 0 2.10427 0 4.70001C0 7.29575 2.10427 9.40002 4.70001 9.40002Z" fill="#5E72E4"/>
<path d="M35.5 9.40002C38.0957 9.40002 40.2 7.29575 40.2 4.70001C40.2 2.10427 38.0957 0 35.5 0C32.9043 0 30.8 2.10427 30.8 4.70001C30.8 7.29575 32.9043 9.40002 35.5 9.40002Z" fill="#5E72E4"/>
<path d="M20.3 33.8C22.8957 33.8 25 31.6957 25 29.1C25 26.5042 22.8957 24.4 20.3 24.4C17.7042 24.4 15.6 26.5042 15.6 29.1C15.6 31.6957 17.7042 33.8 20.3 33.8Z" fill="#5E72E4"/>
</svg>
