<svg width="195" height="34" viewBox="0 0 195 34" fill="none" xmlns="http://www.w3.org/2000/svg">
<path d="M20.1 9.40002C22.6957 9.40002 24.8 7.29575 24.8 4.70001C24.8 2.10427 22.6957 0 20.1 0C17.5042 0 15.4 2.10427 15.4 4.70001C15.4 7.29575 17.5042 9.40002 20.1 9.40002Z" fill="#5E72E4"/>
<path d="M50.9 9.40002C53.4958 9.40002 55.6 7.29575 55.6 4.70001C55.6 2.10427 53.4958 0 50.9 0C48.3043 0 46.2 2.10427 46.2 4.70001C46.2 7.29575 48.3043 9.40002 50.9 9.40002Z" fill="#5E72E4"/>
<path d="M81.7 9.40002C84.2957 9.40002 86.4 7.29575 86.4 4.70001C86.4 2.10427 84.2957 0 81.7 0C79.1042 0 77 2.10427 77 4.70001C77 7.29575 79.1042 9.40002 81.7 9.40002Z" fill="#5E72E4"/>
<path d="M112.5 9.40002C115.096 9.40002 117.2 7.29575 117.2 4.70001C117.2 2.10427 115.096 0 112.5 0C109.904 0 107.8 2.10427 107.8 4.70001C107.8 7.29575 109.904 9.40002 112.5 9.40002Z" fill="#5E72E4"/>
<path d="M143.3 9.40002C145.896 9.40002 148 7.29575 148 4.70001C148 2.10427 145.896 0 143.3 0C140.704 0 138.6 2.10427 138.6 4.70001C138.6 7.29575 140.704 9.40002 143.3 9.40002Z" fill="#5E72E4"/>
<path d="M174.1 9.40002C176.696 9.40002 178.8 7.29575 178.8 4.70001C178.8 2.10427 176.696 0 174.1 0C171.504 0 169.4 2.10427 169.4 4.70001C169.4 7.29575 171.504 9.40002 174.1 9.40002Z" fill="#5E72E4"/>
<path d="M4.90002 33.8C7.49576 33.8 9.59998 31.6957 9.59998 29.1C9.59998 26.5042 7.49576 24.4 4.90002 24.4C2.30429 24.4 0.199951 26.5042 0.199951 29.1C0.199951 31.6957 2.30429 33.8 4.90002 33.8Z" fill="#5E72E4"/>
<path d="M35.7 33.8C38.2957 33.8 40.4 31.6957 40.4 29.1C40.4 26.5042 38.2957 24.4 35.7 24.4C33.1042 24.4 31 26.5042 31 29.1C31 31.6957 33.1042 33.8 35.7 33.8Z" fill="#5E72E4"/>
<path d="M66.5 33.8C69.0957 33.8 71.2 31.6957 71.2 29.1C71.2 26.5042 69.0957 24.4 66.5 24.4C63.9043 24.4 61.8 26.5042 61.8 29.1C61.8 31.6957 63.9043 33.8 66.5 33.8Z" fill="#5E72E4"/>
<path d="M97.3 33.8C99.8958 33.8 102 31.6957 102 29.1C102 26.5042 99.8958 24.4 97.3 24.4C94.7043 24.4 92.6 26.5042 92.6 29.1C92.6 31.6957 94.7043 33.8 97.3 33.8Z" fill="#5E72E4"/>
<path d="M128.1 33.8C130.696 33.8 132.8 31.6957 132.8 29.1C132.8 26.5042 130.696 24.4 128.1 24.4C125.504 24.4 123.4 26.5042 123.4 29.1C123.4 31.6957 125.504 33.8 128.1 33.8Z" fill="#5E72E4"/>
<path d="M158.9 33.8C161.496 33.8 163.6 31.6957 163.6 29.1C163.6 26.5042 161.496 24.4 158.9 24.4C156.304 24.4 154.2 26.5042 154.2 29.1C154.2 31.6957 156.304 33.8 158.9 33.8Z" fill="#5E72E4"/>
<path d="M189.7 33.8C192.296 33.8 194.4 31.6957 194.4 29.1C194.4 26.5042 192.296 24.4 189.7 24.4C187.104 24.4 185 26.5042 185 29.1C185 31.6957 187.104 33.8 189.7 33.8Z" fill="#5E72E4"/>
</svg>
