<svg width="47" height="47" viewBox="0 0 47 47" fill="none" xmlns="http://www.w3.org/2000/svg">
<g clip-path="url(#clip0)">
<path d="M28.3958 41.125H18.6042C18.0167 41.125 17.625 40.7333 17.625 40.1458C17.625 39.5583 18.0167 39.1667 18.6042 39.1667H28.3958C28.9833 39.1667 29.375 39.5583 29.375 40.1458C29.375 40.7333 28.9833 41.125 28.3958 41.125Z" fill="#5E72E4"/>
<path d="M36.6208 11.3583C36.425 11.3583 36.0333 11.3583 35.8375 11.1625C35.4458 10.7708 35.4458 10.1833 35.8375 9.79167L38.5791 7.05001C38.9708 6.65834 39.5583 6.65834 39.95 7.05001C40.3416 7.44167 40.3416 8.02917 39.95 8.42084L37.2083 11.1625C37.2083 11.1625 36.8166 11.3583 36.6208 11.3583Z" fill="#5E72E4"/>
<path d="M46.0208 24.4792H42.1042C41.5167 24.4792 41.125 24.0875 41.125 23.5C41.125 22.9125 41.5167 22.5208 42.1042 22.5208H46.0208C46.6083 22.5208 47 22.9125 47 23.5C47 24.0875 46.6083 24.4792 46.0208 24.4792Z" fill="#5E72E4"/>
<path d="M39.3625 40.3417C39.1666 40.3417 38.775 40.3417 38.5791 40.1458L35.8375 37.4042C35.4458 37.0125 35.4458 36.425 35.8375 36.0333C36.2291 35.6417 36.8166 35.6417 37.2083 36.0333L39.95 38.775C40.3416 39.1667 40.3416 39.7542 39.95 40.1458C39.95 40.3417 39.7541 40.3417 39.3625 40.3417Z" fill="#5E72E4"/>
<path d="M7.63739 40.3417C7.44155 40.3417 7.04989 40.3417 6.85405 40.1458C6.46239 39.7542 6.46239 39.1667 6.85405 38.775L9.59572 36.0333C9.98738 35.6417 10.5749 35.6417 10.9666 36.0333C11.3582 36.425 11.3582 37.0125 10.9666 37.4042L8.22488 40.1458C8.02905 40.3417 7.83322 40.3417 7.63739 40.3417Z" fill="#5E72E4"/>
<path d="M4.89583 24.4792H0.979167C0.391667 24.4792 0 24.0875 0 23.5C0 22.9125 0.391667 22.5208 0.979167 22.5208H4.89583C5.48333 22.5208 5.875 22.9125 5.875 23.5C5.875 24.0875 5.48333 24.4792 4.89583 24.4792Z" fill="#5E72E4"/>
<path d="M10.3791 11.3583C10.1832 11.3583 9.79155 11.3583 9.59572 11.1625L6.85405 8.22501C6.46239 7.83334 6.46239 7.24584 6.85405 6.85417C7.24572 6.46251 7.83322 6.46251 8.22488 6.85417L10.9666 9.59584C11.3582 9.98751 11.3582 10.575 10.9666 10.9667C10.7707 11.1625 10.5749 11.3583 10.3791 11.3583Z" fill="#5E72E4"/>
<path d="M24.4792 31.3333H19.5834C18.9959 31.3333 18.6042 30.9417 18.6042 30.3542C18.6042 29.7667 18.9959 29.375 19.5834 29.375H24.4792C25.6542 29.375 26.4376 28.5917 26.4376 27.4167C26.4376 26.2417 25.6542 25.4583 24.4792 25.4583H22.5209C20.3667 25.4583 18.6042 23.6958 18.6042 21.5417C18.6042 19.3875 20.3667 17.625 22.5209 17.625H27.4167C28.0042 17.625 28.3959 18.0167 28.3959 18.6042C28.3959 19.1917 28.0042 19.5833 27.4167 19.5833H22.5209C21.3459 19.5833 20.5626 20.3667 20.5626 21.5417C20.5626 22.7167 21.3459 23.5 22.5209 23.5H24.4792C26.6334 23.5 28.3959 25.2625 28.3959 27.4167C28.3959 29.5708 26.6334 31.3333 24.4792 31.3333Z" fill="#5E72E4"/>
<path d="M23.4999 19.5833C22.9124 19.5833 22.5208 19.1917 22.5208 18.6042V14.6875C22.5208 14.1 22.9124 13.7083 23.4999 13.7083C24.0874 13.7083 24.4791 14.1 24.4791 14.6875V18.6042C24.4791 19.1917 24.0874 19.5833 23.4999 19.5833Z" fill="#5E72E4"/>
<path d="M23.4999 35.25C22.9124 35.25 22.5208 34.8583 22.5208 34.2708V30.3542C22.5208 29.7667 22.9124 29.375 23.4999 29.375C24.0874 29.375 24.4791 29.7667 24.4791 30.3542V34.2708C24.4791 34.8583 24.0874 35.25 23.4999 35.25Z" fill="#5E72E4"/>
<path d="M26.4376 47H20.5626C19.1917 47 17.6251 45.825 17.6251 43.475V39.3625C17.6251 37.4042 16.6459 35.6417 15.0792 34.2708C11.5542 31.5292 9.79175 27.6125 9.79175 23.3042C9.98758 15.8625 16.0584 9.98749 23.3042 9.79166C27.0251 9.79166 30.5501 11.1625 33.0959 13.7083C35.6418 16.2542 37.2084 19.7792 37.2084 23.5C37.2084 27.6125 35.4459 31.5292 32.1168 34.075C30.3543 35.4458 29.3751 37.6 29.3751 39.5583V44.0625C29.3751 45.6292 28.0043 47 26.4376 47ZM23.5001 11.75C17.2334 11.75 11.9459 17.0375 11.7501 23.3042C11.7501 27.025 13.3167 30.55 16.2542 32.7042C18.4084 34.4667 19.5834 36.8167 19.5834 39.3625V43.475C19.5834 43.8667 19.5834 45.0417 20.5626 45.0417H26.4376C27.0251 45.0417 27.4168 44.65 27.4168 44.0625V39.5583C27.4168 37.0125 28.7876 34.2708 30.9418 32.5083C33.6834 30.3542 35.2501 27.025 35.2501 23.5C35.2501 20.3667 34.0751 17.4292 31.7251 15.0792C29.5709 12.925 26.6334 11.75 23.5001 11.75Z" fill="#5E72E4"/>
<path d="M23.4999 5.875C22.9124 5.875 22.5208 5.48333 22.5208 4.89583V0.979167C22.5208 0.391667 22.9124 0 23.4999 0C24.0874 0 24.4791 0.391667 24.4791 0.979167V4.89583C24.4791 5.48333 24.0874 5.875 23.4999 5.875Z" fill="#5E72E4"/>
</g>
<defs>
<clipPath id="clip0">
<rect width="47" height="47" fill="white"/>
</clipPath>
</defs>
</svg>
